# xmcd
#
# Track frame offsets:
#	150
#	25721
#	44201
#	58862
#	80355
#
# Disc length: 1194 seconds
#
# Revision: 1
# Processed by: cddbd v1.5.2PL0 Copyright (c) Steve Scherf et al.
# Submitted via: audiograbber 1.83.01
#
DISCID=3d04a805
DTITLE=Lithopaper - Unnamed
DYEAR=1900
DGENRE=
TTITLE0=Alone Tonight
TTITLE1=Biscuit Doona
TTITLE2=Hookers
TTITLE3=Silver Bag
TTITLE4=Leon
EXTD=
EXTT0=
EXTT1=
EXTT2=
EXTT3=
EXTT4=
PLAYORDER=
